HIERARCHY
ROOT SpineBase
{
  OFFSET 0.000000 0.000000 0.000000
  CHANNELS 6 Xposition Yposition Zposition Zrotation Xrotation Yrotation
  JOINT SpineMid
  {
    OFFSET -0.000000 32.428481 0.000000
    CHANNELS 3 Zrotation Xrotation Yrotation
    JOINT SpineShoulder
    {
      OFFSET -0.233637 24.180725 -0.813518
      CHANNELS 3 Zrotation Xrotation Yrotation
      JOINT Neck
      {
        OFFSET -0.172787 8.029494 -0.605756
        CHANNELS 3 Zrotation Xrotation Yrotation
        JOINT Head
        {
          OFFSET 0.667361 11.631587 3.006917
          CHANNELS 3 Zrotation Xrotation Yrotation
          End Site
          {
            OFFSET 0 0 0
          }
        }
      }
      JOINT ShoulderLeft
      {
        OFFSET -12.909130 -6.287554 -7.748430
        CHANNELS 3 Zrotation Xrotation Yrotation
        JOINT ElbowLeft
        {
          OFFSET -6.263125 -23.537381 4.366953
          CHANNELS 3 Zrotation Xrotation Yrotation
          JOINT WristLeft
          {
            OFFSET 3.438980 -18.106950 9.894925
            CHANNELS 3 Zrotation Xrotation Yrotation
            JOINT HandLeft
            {
              OFFSET -1.878773 -7.057556 -9.946341
              CHANNELS 3 Zrotation Xrotation Yrotation
              JOINT HandTipLeft
              {
                OFFSET -0.304483 -0.631772 -0.750038
                CHANNELS 3 Zrotation Xrotation Yrotation
                End Site
                {
                  OFFSET 0 0 0
                }
              }
              JOINT ThumbLeft
              {
                OFFSET -0.818392 -0.804447 -1.075139
                CHANNELS 3 Zrotation Xrotation Yrotation
                End Site
                {
                  OFFSET 0 0 0
                }
              }
            }
          }
        }
      }
      JOINT ShoulderRight
      {
        OFFSET 12.961500 -6.085072 -2.509398
        CHANNELS 3 Zrotation Xrotation Yrotation
        JOINT ElbowRight
        {
          OFFSET 5.263111 -24.087225 4.965866
          CHANNELS 3 Zrotation Xrotation Yrotation
          JOINT WristRight
          {
            OFFSET -27.881748 -8.762055 -7.822002
            CHANNELS 3 Zrotation Xrotation Yrotation
            JOINT HandRight
            {
              OFFSET -19.786015 -13.675273 -2.169168
              CHANNELS 3 Zrotation Xrotation Yrotation
              JOINT HandTipRight
              {
                OFFSET -0.711503 0.844140 -1.275421
                CHANNELS 3 Zrotation Xrotation Yrotation
                End Site
                {
                  OFFSET 0 0 0
                }
              }
              JOINT ThumbRight
              {
                OFFSET -1.686298 4.878496 -6.651062
                CHANNELS 3 Zrotation Xrotation Yrotation
                End Site
                {
                  OFFSET 0 0 0
                }
              }
            }
          }
        }
      }
    }
  }
  JOINT HipLeft
  {
    OFFSET -7.310360 1.831587 -4.165105
    CHANNELS 3 Zrotation Xrotation Yrotation
    JOINT KneeLeft
    {
      OFFSET 1.780952 -26.313156 -4.205118
      CHANNELS 3 Zrotation Xrotation Yrotation
      JOINT AnkleLeft
      {
        OFFSET 0.402112 -28.824133 -4.464121
        CHANNELS 3 Zrotation Xrotation Yrotation
        JOINT FootLeft
        {
          OFFSET 0.764515 -1.243289 -10.372942
          CHANNELS 3 Zrotation Xrotation Yrotation
          End Site
          {
            OFFSET 0 0 0
          }
        }
      }
    }
  }
  JOINT HipRight
  {
    OFFSET 5.387790 1.329103 -2.343536
    CHANNELS 3 Zrotation Xrotation Yrotation
    JOINT KneeRight
    {
      OFFSET 3.885123 -29.993970 -1.649352
      CHANNELS 3 Zrotation Xrotation Yrotation
      JOINT AnkleRight
      {
        OFFSET 3.223950 -27.276903 -0.275633
        CHANNELS 3 Zrotation Xrotation Yrotation
        JOINT FootRight
        {
          OFFSET 0.587763 -1.299198 -10.357614
          CHANNELS 3 Zrotation Xrotation Yrotation
          End Site
          {
            OFFSET 0 0 0
          }
        }
      }
    }
  }
}
MOTION
Frames: 8
Frame Time: 0.033333
71.503988 60.177568 243.926841 0.512846 -0.326466 -7.893412 -0.552826 0.252930 7.896094 -0.000000 0.000000 0.000000 -1.434373 -1.993498 0.461998 0.000000 0.000000 0.000000 -0.000000 0.000000 0.000000 -0.000000 0.000000 0.000000 4.851663 -26.190326 2.093435 -17.364824 59.234446 3.432619 0.000000 0.000000 0.000000 0.000000 0.000000 0.000000 3.787409 -4.189732 0.003763 -3.797253 4.180815 0.273479 -0.000000 0.000000 0.000000 -0.000000 0.000000 0.000000 0.000000 0.000000 0.000000 0.000000 0.000000 0.000000 -3.055727 1.796229 8.429272 3.368113 -3.424657 -0.595686 -2.076815 -10.652107 6.701302 0.000000 0.000000 0.000000 -1.395179 1.235836 8.086644 0.460524 -0.107010 -0.056733 21.603852 -76.770988 36.604302 0.000000 0.000000 0.000000
71.505975 60.170198 243.984815 0.544264 -0.330660 -7.847366 -0.584319 0.253238 7.850228 -0.000000 0.000000 0.000000 -1.447467 -2.071547 0.468754 0.000000 0.000000 0.000000 -0.000000 0.000000 0.000000 -0.000000 0.000000 0.000000 4.955437 -26.293670 1.964093 -50.938277 63.328916 38.304619 0.000000 0.000000 0.000000 0.000000 0.000000 0.000000 3.641123 -3.848899 0.031552 -3.647217 3.843125 0.213240 -0.000000 0.000000 0.000000 -0.000000 0.000000 0.000000 0.000000 0.000000 0.000000 0.000000 0.000000 0.000000 -3.168535 1.857626 8.402708 3.242652 -3.008767 -0.583370 -1.695943 -6.940264 4.136691 0.000000 0.000000 0.000000 -1.451062 1.252440 8.044932 0.468838 -0.127869 -0.060419 9.079400 -68.479546 22.769956 0.000000 0.000000 0.000000
71.500906 60.166735 244.038263 0.567364 -0.337247 -7.887795 -0.608283 0.256178 7.890824 -0.000000 0.000000 0.000000 -1.427182 -2.152160 0.467584 0.000000 0.000000 0.000000 -0.000000 0.000000 0.000000 -0.000000 0.000000 0.000000 6.899213 -32.768373 2.220576 -111.760316 33.265872 105.125473 0.000000 0.000000 0.000000 0.000000 0.000000 0.000000 3.637231 -3.775005 0.044262 -3.642209 3.770203 0.195560 -0.000000 0.000000 0.000000 -0.000000 0.000000 0.000000 0.000000 0.000000 0.000000 0.000000 0.000000 0.000000 -3.115776 1.887187 8.430808 2.242657 -1.979287 -0.454328 -0.341081 -3.221694 1.119113 0.000000 0.000000 0.000000 -1.517226 1.296804 8.094539 0.511926 -0.165976 -0.066906 0.099240 -43.102530 9.332991 0.000000 0.000000 0.000000
71.494679 60.166865 244.089207 0.593205 -0.334699 -8.020499 -0.634108 0.248639 8.023608 -0.000000 0.000000 0.000000 -1.442226 -2.273826 0.476808 0.000000 0.000000 0.000000 -0.000000 0.000000 0.000000 -0.000000 0.000000 0.000000 6.789457 -32.531980 2.275906 -100.567874 -5.723071 114.070548 0.000000 0.000000 0.000000 0.000000 0.000000 0.000000 3.730836 -3.885642 0.046032 -3.736293 3.880396 0.207183 -0.000000 0.000000 0.000000 -0.000000 0.000000 0.000000 0.000000 0.000000 0.000000 0.000000 0.000000 0.000000 -3.153124 1.858555 8.563644 2.252580 -1.965344 -0.455063 0.291988 1.225910 -1.544950 0.000000 0.000000 0.000000 -1.578330 1.343883 8.237354 0.519272 -0.172673 -0.069242 -0.623442 -15.891956 2.733304 0.000000 0.000000 0.000000
71.491899 60.163433 244.136159 0.626202 -0.329363 -8.184263 -0.666717 0.236845 8.187441 -0.000000 0.000000 0.000000 -1.478124 -2.414096 0.491831 0.000000 0.000000 0.000000 -0.000000 0.000000 0.000000 -0.000000 0.000000 0.000000 8.885089 -39.633707 3.506695 -96.625123 -18.778614 126.943844 0.000000 0.000000 0.000000 0.000000 0.000000 0.000000 4.037933 -4.115764 0.077109 -4.042814 4.110970 0.213201 -0.000000 0.000000 0.000000 -0.000000 0.000000 0.000000 0.000000 0.000000 0.000000 0.000000 0.000000 0.000000 -3.240338 1.830788 8.735610 2.303094 -1.964543 -0.462229 0.380147 1.654296 -1.923931 0.000000 0.000000 0.000000 -1.636044 1.379012 8.409310 0.523111 -0.133459 -0.065528 -0.124117 -6.855925 0.558817 0.000000 0.000000 0.000000
71.491373 60.157969 244.178464 0.652718 -0.337488 -8.283966 -0.694538 0.239903 8.287342 -0.000000 0.000000 0.000000 -1.476547 -2.479234 0.494441 0.000000 0.000000 0.000000 -0.000000 0.000000 0.000000 -0.000000 0.000000 0.000000 12.914963 -49.463035 5.441572 -100.652736 -24.038965 139.693078 0.000000 0.000000 0.000000 0.000000 0.000000 0.000000 4.120513 -4.220416 0.077960 -4.125952 4.215100 0.225835 -0.000000 0.000000 0.000000 -0.000000 0.000000 0.000000 0.000000 0.000000 0.000000 0.000000 0.000000 0.000000 -3.285534 1.824392 8.837987 2.318204 -1.961962 -0.464260 0.126615 -0.065206 -1.100839 0.000000 0.000000 0.000000 -1.666170 1.412143 8.513391 0.508896 -0.023147 -0.052263 0.297571 -2.291333 -0.817193 0.000000 0.000000 0.000000
71.485298 60.148094 244.214166 0.670150 -0.332487 -8.373850 -0.711431 0.231326 8.377231 0.767218 -0.297140 0.053458 -2.189966 -2.166301 0.438525 0.000000 0.000000 0.000000 -0.766951 0.297829 -0.049475 -0.000000 0.000000 0.000000 12.051076 -47.450149 4.751648 -108.484212 -18.977712 134.885685 0.000000 0.000000 0.000000 0.000000 0.000000 0.000000 4.899857 -5.733081 0.069911 -4.907611 6.230101 -1.042900 -0.774719 -0.233941 1.406686 -3.295996 0.073186 -5.041492 0.000000 0.000000 0.000000 0.000000 0.000000 0.000000 -3.306255 1.808038 8.927450 2.320120 -1.958498 -0.464367 0.138651 -0.057379 -1.196062 0.000000 0.000000 0.000000 -1.663668 1.433209 8.605283 0.475978 0.015625 -0.046679 0.563788 -0.024428 -1.600019 0.000000 0.000000 0.000000
71.483129 60.134630 244.246964 0.687886 -0.324000 -8.384582 -0.727783 0.220210 8.387925 0.783266 -0.278391 0.054986 -2.113512 -2.134292 0.411490 0.000000 0.000000 0.000000 -0.783007 0.279117 -0.051175 -0.000000 0.000000 0.000000 6.905359 -32.857112 2.268543 -103.038998 -15.739038 119.983105 0.000000 0.000000 0.000000 0.000000 0.000000 0.000000 4.150753 -5.163792 -0.011533 -4.627797 5.649876 -0.643023 -0.325199 -0.230728 1.016476 -5.138514 11.958541 3.588445 0.000000 0.000000 0.000000 0.000000 0.000000 0.000000 -3.320610 1.800711 8.937491 2.317219 -1.962350 -0.464138 0.360233 1.802075 -1.679219 0.000000 0.000000 0.000000 -1.698948 1.458719 8.622168 0.533201 -0.017494 -0.051413 0.583994 0.407597 -1.834017 0.000000 0.000000 0.000000
